<svg width="48" height="48" viewBox="0 0 48 48" fill="none" xmlns="http://www.w3.org/2000/svg">
<rect width="48" height="48" rx="24" transform="matrix(1 0 0 -1 0 48)" fill="white"/>
<path d="M17.9894 21.0543C17.9353 20.5087 17.703 20.0848 17.2927 19.7826C16.8823 19.4805 16.3254 19.3295 15.622 19.3295C15.144 19.3295 14.7404 19.3971 14.4112 19.5324C14.082 19.6631 13.8295 19.8458 13.6536 20.0803C13.4823 20.3148 13.3966 20.5808 13.3966 20.8784C13.3876 21.1264 13.4394 21.3429 13.5522 21.5278C13.6694 21.7127 13.8295 21.8727 14.0324 22.008C14.2353 22.1388 14.4698 22.2538 14.7359 22.353C15.0019 22.4477 15.286 22.5289 15.5881 22.5965L16.8327 22.8941C17.437 23.0294 17.9916 23.2098 18.4967 23.4352C19.0017 23.6607 19.4392 23.938 19.8089 24.2672C20.1787 24.5964 20.465 24.9842 20.668 25.4306C20.8754 25.8771 20.9814 26.3889 20.9859 26.9661C20.9814 27.8139 20.7649 28.5489 20.3365 29.1712C19.9126 29.789 19.2994 30.2692 18.4967 30.6119C17.6985 30.9501 16.7358 31.1192 15.6084 31.1192C14.4901 31.1192 13.5161 30.9479 12.6864 30.6052C11.8611 30.2624 11.2163 29.7551 10.7518 29.0832C10.2919 28.4068 10.0506 27.5703 10.0281 26.5738H12.8622C12.8938 27.0382 13.0268 27.426 13.2613 27.7372C13.5003 28.0438 13.8182 28.2761 14.215 28.4339C14.6164 28.5872 15.0696 28.6639 15.5746 28.6639C16.0706 28.6639 16.5013 28.5917 16.8666 28.4474C17.2363 28.3031 17.5227 28.1025 17.7256 27.8454C17.9285 27.5884 18.03 27.293 18.03 26.9593C18.03 26.6482 17.9375 26.3866 17.7526 26.1747C17.5723 25.9627 17.3062 25.7824 16.9545 25.6336C16.6073 25.4848 16.1811 25.3495 15.6761 25.2277L14.1677 24.8489C12.9998 24.5648 12.0776 24.1207 11.4012 23.5164C10.7248 22.9122 10.3888 22.0982 10.3933 21.0746C10.3888 20.2358 10.612 19.5031 11.063 18.8763C11.5184 18.2495 12.143 17.7602 12.9366 17.4085C13.7303 17.0567 14.6322 16.8809 15.6423 16.8809C16.6704 16.8809 17.5678 17.0567 18.3344 17.4085C19.1055 17.7602 19.7052 18.2495 20.1336 18.8763C20.562 19.5031 20.7829 20.2291 20.7965 21.0543H17.9894Z" fill="#29ABE2"/>
<path d="M22.9559 17.0703H26.5679L30.3829 26.3776H30.5452L34.3601 17.0703H37.9721V30.9231H35.1312V21.9066H35.0162L31.4313 30.8554H29.4968L25.9118 21.8727H25.7968V30.9231H22.9559V17.0703Z" fill="#29ABE2"/>
</svg>
